A black ops super soldier seeks payback after she is betrayed and set up during a mission. 

SOURCES:

VIDEO - R5 DVD9 THANKS
AUDIO - THE AUDIO GUY THANKS
SUBS - None Add

STATS:

Video
ID : 0
Format : MPEG-4 Visual
Format profile : Advanced Simple@L5
Format settings, BVOP : 2
Format settings, QPel : No
Format settings, GMC : No warppoints
Format settings, Matrix : Default (MPEG)
Muxing mode : Packed bitstream
Codec ID : XVID
Codec ID/Hint : XviD
Duration : 1h 28mn
Bit rate : 2 069 Kbps
Width : 720 pixels
Height : 528 pixels
Display aspect ratio : 4:3
Frame rate : 25.000 fps
Color space : YUV
Chroma subsampling : 4:2:0
Bit depth : 8 bits
Scan type : Progressive
Compression mode : Lossy
Bits/(Pixel*Frame) : 0.218
Stream size : 1.29 GiB (94%)
Writing library : XviD 64

Audio
ID : 1
Format : MPEG Audio
Format version : Version 1
Format profile : Layer 3
Mode : Joint stereo
Mode extension : MS Stereo
Codec ID : 55
Codec ID/Hint : MP3
Duration : 1h 28mn
Bit rate mode : Constant
Bit rate : 128 Kbps
Channel(s) : 2 channels
Sampling rate : 44.1 KHz
Compression mode : Lossy
Stream size : 81.4 MiB (6%)
Alignment : Split accross interleaves
Interleave, duration : 40 ms (1.00 video frame)
Interleave, preload duration : 500 ms

NOTES:

One of THE worse R5's i have ever seen Q wise ...noise,overcropped loads,colouring ...yuk !!
So done all i can cleaning it,correcting colours,brightness and contrast levels...removing some noise whilst keeping the sharpness.
Audio we've got the raw files so was able to sync it no problem and once worked out the times ...all synced with no cuts
Add the end credit music off the russian release aswell .....
The audio after i got it sync'd i remastered it and gave it some lovin before muxing back to our encode.